<svg width="23" height="22" viewBox="0 0 23 22" fill="none" xmlns="http://www.w3.org/2000/svg">
<g clip-path="url(#clip0)">
<path d="M16.0648 0H6.22789C2.88399 0 0.173164 2.71746 0.173164 6.06953V15.9305C0.173164 19.2825 2.88399 22 6.22789 22H16.0648C19.4087 22 22.1195 19.2825 22.1195 15.9305V6.06953C22.1195 2.71746 19.4087 0 16.0648 0ZM20.1716 15.9305C20.1716 18.2086 18.3211 20.0473 16.0648 20.0473H6.22789C3.95534 20.0473 2.12106 18.1923 2.12106 15.9305V6.06953C2.12106 3.80769 3.97157 1.95266 6.22789 1.95266H16.0648C18.3373 1.95266 20.1716 3.80769 20.1716 6.06953V15.9305Z" fill="black"/>
<path d="M11.1463 5.33716C8.02968 5.33716 5.48118 7.87562 5.48118 10.9999C5.48118 14.1241 8.01345 16.6789 11.1463 16.6789C14.263 16.6789 16.8115 14.1404 16.8115 10.9999C16.8115 7.87562 14.263 5.33716 11.1463 5.33716ZM11.1463 14.7262C9.10103 14.7262 7.42908 13.0664 7.42908 11.0162C7.44531 8.94958 9.10103 7.28982 11.1463 7.28982C13.1916 7.28982 14.8636 8.94958 14.8636 10.9999C14.8636 13.0502 13.1916 14.7262 11.1463 14.7262Z" fill="black"/>
<path d="M17.0387 3.67749C16.6654 3.67749 16.292 3.82394 16.0323 4.10057C15.7726 4.36092 15.6103 4.73518 15.6103 5.10944C15.6103 5.4837 15.7564 5.85796 16.0323 6.11832C16.292 6.37867 16.6654 6.5414 17.0387 6.5414C17.4121 6.5414 17.7854 6.39495 18.0451 6.11832C18.3049 5.85796 18.4672 5.4837 18.4672 5.10944C18.4672 4.73518 18.3211 4.36092 18.0451 4.10057C17.7854 3.82394 17.4283 3.67749 17.0387 3.67749Z" fill="black"/>
</g>
<defs>
<clipPath id="clip0">
<rect width="21.9463" height="22" fill="white" transform="translate(0.173164)"/>
</clipPath>
</defs>
</svg>
