<svg width="23" height="22" viewBox="0 0 23 22" fill="none" xmlns="http://www.w3.org/2000/svg">
<g clip-path="url(#clip0)">
<path d="M5.23636 7.14941H0.308351V22H5.23636V7.14941Z" fill="black"/>
<path d="M21.4194 8.50559C20.388 7.37916 19.0127 6.80444 17.3166 6.80444C16.6977 6.80444 16.1247 6.87341 15.5975 7.03433C15.0932 7.19525 14.6577 7.40214 14.291 7.67801C13.9472 7.95387 13.6492 8.20674 13.4429 8.45962C13.2366 8.6895 13.0533 8.94237 12.8699 9.24123V7.12628H7.9648L7.98772 7.83893C7.98772 8.32168 8.01064 9.79295 8.01064 12.2757C8.01064 14.7585 8.01064 17.9769 7.98772 21.9769H12.8928V13.701C12.8928 13.1952 12.9387 12.7815 13.0533 12.4826C13.2595 11.9769 13.5804 11.5401 13.993 11.1952C14.4056 10.8504 14.9328 10.6895 15.5746 10.6895C16.4226 10.6895 17.0644 10.9884 17.4541 11.5861C17.8667 12.1838 18.05 13.0113 18.05 14.0458V21.9769H22.9551V13.4711C22.978 11.2872 22.4738 9.63203 21.4194 8.50559Z" fill="black"/>
<path d="M2.80759 0C1.98243 0 1.31772 0.252874 0.813463 0.735632C0.28628 1.21839 0.0341492 1.81609 0.0341492 2.55172C0.0341492 3.28736 0.28628 3.88506 0.790542 4.39081C1.2948 4.87356 1.93659 5.12644 2.76175 5.12644H2.78467C3.63274 5.12644 4.29745 4.87356 4.80171 4.39081C5.30597 3.90805 5.55811 3.28736 5.55811 2.55172C5.55811 1.81609 5.28305 1.1954 4.80171 0.712644C4.29745 0.252874 3.63274 0 2.80759 0Z" fill="black"/>
</g>
<defs>
<clipPath id="clip0">
<rect width="22.9439" height="22" fill="white" transform="translate(0.0341492)"/>
</clipPath>
</defs>
</svg>
