<svg width="26" height="20" viewBox="0 0 26 20" fill="none" xmlns="http://www.w3.org/2000/svg">
<g clip-path="url(#clip0)">
<path d="M25.3675 2.3741C24.3962 2.78177 23.4006 3.04556 22.4292 3.16547C23.5463 2.51799 24.2748 1.58273 24.6876 0.383693C23.6677 0.959233 22.5749 1.36691 21.4336 1.58273C20.4137 0.527578 19.1753 0 17.694 0C16.2855 0 15.0714 0.503597 14.0758 1.48681C13.0801 2.47002 12.5702 3.66906 12.5702 5.05995C12.5702 5.44365 12.6188 5.82734 12.6916 6.21103C10.6032 6.11511 8.63628 5.58753 6.81503 4.65228C4.99378 3.71703 3.43964 2.47002 2.15262 0.935252C1.69124 1.72662 1.44841 2.56595 1.44841 3.47722C1.44841 4.34053 1.64267 5.15588 2.05549 5.8753C2.46831 6.6187 3.02682 7.21823 3.70676 7.67386C2.88112 7.64988 2.10406 7.43405 1.39984 7.02638V7.09832C1.39984 8.32134 1.78837 9.3765 2.56544 10.3118C3.34251 11.223 4.31384 11.8225 5.50373 12.0623C5.06663 12.1823 4.60524 12.2302 4.16814 12.2302C3.87674 12.2302 3.56106 12.2062 3.19681 12.1583C3.51249 13.1655 4.11958 14.0048 4.99378 14.6523C5.86798 15.2998 6.8636 15.6355 7.98063 15.6595C6.1351 17.0983 3.99816 17.8177 1.64267 17.8177C1.18129 17.8177 0.768471 17.7938 0.404221 17.7458C2.78399 19.2566 5.4066 20 8.24775 20C10.069 20 11.7688 19.7122 13.3715 19.1607C14.9742 18.5851 16.3341 17.8417 17.4511 16.8825C18.5682 15.9233 19.5638 14.8201 20.3652 13.5971C21.1908 12.3501 21.7979 11.0552 22.1864 9.71223C22.5749 8.3693 22.7935 7.0024 22.7935 5.65947C22.7935 5.3717 22.7935 5.15588 22.7692 5.01199C23.8134 4.26858 24.6633 3.40528 25.3675 2.3741Z" fill="black"/>
</g>
<defs>
<clipPath id="clip0">
<rect width="24.939" height="20" fill="white" transform="translate(0.42926)"/>
</clipPath>
</defs>
</svg>
