<svg width="29" height="20" viewBox="0 0 29 20" fill="none" xmlns="http://www.w3.org/2000/svg">
<g clip-path="url(#clip0)">
<path d="M28.81 7.64988C28.81 7.09832 28.7622 6.3789 28.6665 5.51559C28.5947 4.65228 28.4751 3.88489 28.3316 3.21343C28.1641 2.44604 27.8053 1.82254 27.2551 1.29496C26.7049 0.767386 26.059 0.479616 25.3174 0.383693C23.0208 0.119904 19.5282 0 14.8633 0C10.1985 0 6.70581 0.119904 4.40927 0.383693C3.66767 0.479616 3.02177 0.767386 2.47156 1.29496C1.92134 1.82254 1.56251 2.44604 1.39505 3.21343C1.2276 3.88489 1.13191 4.65228 1.03622 5.51559C0.964452 6.3789 0.916607 7.09832 0.892685 7.64988C0.892685 8.22542 0.892685 8.99281 0.892685 10C0.892685 11.0072 0.892685 11.7746 0.916607 12.3501C0.916607 12.9017 0.964452 13.6211 1.06014 14.4844C1.10799 15.3477 1.2276 16.1151 1.37113 16.7866C1.53859 17.554 1.89742 18.1775 2.44764 18.705C2.99785 19.2326 3.64375 19.5204 4.38534 19.6163C6.68189 19.8801 10.1745 20 14.8394 20C19.5043 20 22.9969 19.8801 25.2935 19.6163C26.035 19.5444 26.681 19.2326 27.2312 18.705C27.7814 18.1775 28.1402 17.554 28.3077 16.7866C28.4751 16.1151 28.5708 15.3477 28.6665 14.4844C28.7383 13.6211 28.7861 12.9017 28.81 12.3501C28.81 11.7986 28.834 11.0072 28.834 10C28.834 8.99281 28.834 8.22542 28.81 7.64988ZM20.3894 10.8393L12.3993 15.8513C12.2558 15.9472 12.0883 16.0192 11.873 16.0192C11.7056 16.0192 11.562 15.9712 11.3946 15.8993C11.0597 15.7074 10.8683 15.4197 10.8683 15.012V5.01199C10.8683 4.60432 11.0358 4.31655 11.3946 4.1247C11.7534 3.93285 12.0883 3.95683 12.3993 4.14868L16.3944 6.65468L20.3894 9.16067C20.7004 9.32854 20.8678 9.61631 20.8678 10C20.8439 10.3837 20.7004 10.6715 20.3894 10.8393Z" fill="black"/>
</g>
<defs>
<clipPath id="clip0">
<rect width="27.9413" height="20" fill="white" transform="translate(0.892685)"/>
</clipPath>
</defs>
</svg>
